# xmcd
#
# Track frame offsets: 
#        150
#        12547
#        22402
#        36157
#        49927
#        68700
#        80105
#        93120
#        107242
#        116812
#        129697
#        140852
#
# Disc length: 2003 seconds
#
# Revision: 3
# Processed by: cddbd v1.5PL3 Copyright (c) Steve Scherf et al.
# Submitted via: ExactAudioCopy v0.95a4
#
DISCID=b607d10c
DTITLE=Tom T. Hall - The Best Of Tom T. Hall  (20th Century Masters Th
DTITLE=e Millennium Collection)
DYEAR=2000
DGENRE=Country
TTITLE0=The Year That Clayton Delaney Died
TTITLE1=Country Is
TTITLE2=Ballad Of Forty Dollars
TTITLE3=A Week In A Country Jail
TTITLE4=(Old Dogs-Children And) Watermelon Wine
TTITLE5=Ravishing Ruby
TTITLE6=I Like Beer
TTITLE7=That Song Is Driving Me Crazy
TTITLE8=I Care
TTITLE9=Faster Horses (The Cowboy And The Poet)
TTITLE10=P.S. I Love You
TTITLE11=I Love
EXTD=
EXTT0=
EXTT1=
EXTT2=
EXTT3=
EXTT4=
EXTT5=
EXTT6=
EXTT7=
EXTT8=
EXTT9=
EXTT10=
EXTT11=
PLAYORDER=
